<svg xmlns="http://www.w3.org/2000/svg" viewBox="0 0 200 252" fill="none" stroke-linecap="round" stroke-linejoin="round">
  <!-- 波紋背景 -->
  <circle cx="100" cy="130" r="86" fill="#e4ebef" opacity="0.5"/>
  <circle cx="100" cy="130" r="100" stroke="#c2cfd8" stroke-width="1.4" opacity="0.55"/>

  <!-- 靴 -->
  <ellipse cx="87" cy="238" rx="10" ry="5" fill="#5a6d7d"/>
  <ellipse cx="113" cy="238" rx="10" ry="5" fill="#5a6d7d"/>

  <!-- インナー（襟元の緑） -->
  <path d="M86 112 L100 130 L114 112 Z" fill="#8fa83d"/>

  <!-- 白衣 -->
  <path d="M72 120 Q100 108 128 120 L136 224 Q100 234 64 224 Z" fill="#ffffff" stroke="#3d4e5e" stroke-width="2.4"/>
  <!-- 白衣の合わせ・襟 -->
  <path d="M100 126 V228" stroke="#dde4e8" stroke-width="2"/>
  <path d="M88 114 L100 128 L112 114" stroke="#3d4e5e" stroke-width="2.2"/>
  <!-- ボタン -->
  <circle cx="94" cy="146" r="1.8" fill="#5a6d7d"/>
  <circle cx="94" cy="164" r="1.8" fill="#5a6d7d"/>
  <!-- ポケット＋緑十字 -->
  <rect x="74" y="182" width="17" height="15" rx="2" stroke="#c2cfd8" stroke-width="1.6"/>
  <path d="M116 148 h6 v6 h6 v6 h-6 v6 h-6 v-6 h-6 v-6 h6 Z" fill="#8fa83d" opacity="0.9" transform="translate(-4 32)"/>

  <!-- 左腕（下ろす） -->
  <path d="M72 130 Q58 144 62 168" stroke="#3d4e5e" stroke-width="2.4" fill="#ffffff"/>
  <circle cx="63" cy="172" r="6" fill="#f6d7bd" stroke="#3d4e5e" stroke-width="2"/>

  <!-- 薬瓶を抱える右腕 -->
  <rect x="124" y="146" width="22" height="28" rx="4" fill="#ffffff" stroke="#3d4e5e" stroke-width="2.2"/>
  <rect x="129" y="138" width="12" height="9" rx="2" fill="#8fa83d" stroke="#3d4e5e" stroke-width="1.8"/>
  <rect x="128" y="154" width="14" height="11" rx="1.5" fill="#e4ebef"/>
  <path d="M128 132 Q144 136 142 150" stroke="#3d4e5e" stroke-width="2.4"/>
  <circle cx="135" cy="178" r="6" fill="#f6d7bd" stroke="#3d4e5e" stroke-width="2"/>

  <!-- 首 -->
  <rect x="94" y="102" width="12" height="12" rx="4" fill="#f6d7bd"/>

  <!-- お団子ヘア -->
  <circle cx="100" cy="36" r="11" fill="#5a6d7d"/>
  <rect x="94" y="30" width="12" height="4" rx="2" fill="#8fa83d"/>

  <!-- 顔 -->
  <circle cx="100" cy="74" r="32" fill="#f6d7bd" stroke="#3d4e5e" stroke-width="2.4"/>
  <!-- 髪 -->
  <path d="M68 74 Q66 42 100 40 Q134 42 132 74 Q130 64 121 60 Q112 56 100 56 Q88 56 79 60 Q70 64 68 74 Z" fill="#5a6d7d" stroke="#3d4e5e" stroke-width="2"/>
  <path d="M68 76 q-3 10 1 17" stroke="#5a6d7d" stroke-width="4"/>
  <path d="M132 76 q3 10 -1 17" stroke="#5a6d7d" stroke-width="4"/>

  <!-- 表情 -->
  <circle cx="88" cy="76" r="2.6" fill="#3d4e5e"/>
  <circle cx="112" cy="76" r="2.6" fill="#3d4e5e"/>
  <ellipse cx="82" cy="85" rx="4.2" ry="2.6" fill="#f3b8a0" opacity="0.65"/>
  <ellipse cx="118" cy="85" rx="4.2" ry="2.6" fill="#f3b8a0" opacity="0.65"/>
  <path d="M95 88 Q100 93 105 88" stroke="#3d4e5e" stroke-width="2"/>
</svg>
