<svg xmlns="http://www.w3.org/2000/svg" viewBox="0 0 200 252" fill="none" stroke-linecap="round" stroke-linejoin="round">
  <!-- 波紋背景 -->
  <circle cx="100" cy="130" r="86" fill="#e4ebef" opacity="0.5"/>
  <circle cx="100" cy="130" r="100" stroke="#c2cfd8" stroke-width="1.4" opacity="0.55"/>

  <!-- 靴 -->
  <ellipse cx="87" cy="238" rx="10" ry="5" fill="#5a6d7d"/>
  <ellipse cx="113" cy="238" rx="10" ry="5" fill="#5a6d7d"/>

  <!-- シャツ -->
  <path d="M74 120 Q100 108 126 120 L134 224 Q100 234 66 224 Z" fill="#ffffff" stroke="#3d4e5e" stroke-width="2.4"/>

  <!-- エプロン（オレンジ） -->
  <path d="M80 136 Q100 130 120 136 L128 222 Q100 231 72 222 Z" fill="#e8b77d" stroke="#3d4e5e" stroke-width="2.2"/>
  <path d="M84 136 Q84 122 100 122 Q116 122 116 136" stroke="#d98f40" stroke-width="3"/>
  <!-- エプロンポケット＋しずくマーク -->
  <path d="M100 172 q-9 12 0 18 q9 -6 0 -18 Z" fill="#ffffff" stroke="#d98f40" stroke-width="2"/>
  <!-- 名札 -->
  <rect x="82" y="142" width="16" height="10" rx="2" fill="#ffffff" stroke="#3d4e5e" stroke-width="1.6"/>
  <path d="M85 147 h10" stroke="#c2cfd8" stroke-width="1.6"/>

  <!-- 左腕（下ろす） -->
  <path d="M74 130 Q60 144 64 168" stroke="#3d4e5e" stroke-width="2.4"/>
  <circle cx="65" cy="172" r="6" fill="#f6d7bd" stroke="#3d4e5e" stroke-width="2"/>

  <!-- 右腕（挨拶に上げる） -->
  <path d="M126 128 Q144 122 148 104" stroke="#3d4e5e" stroke-width="2.4"/>
  <circle cx="150" cy="99" r="6.5" fill="#f6d7bd" stroke="#3d4e5e" stroke-width="2"/>

  <!-- 首 -->
  <rect x="94" y="102" width="12" height="12" rx="4" fill="#f6d7bd"/>

  <!-- 顔 -->
  <circle cx="100" cy="74" r="32" fill="#f6d7bd" stroke="#3d4e5e" stroke-width="2.4"/>
  <!-- ボブヘア -->
  <path d="M68 74 Q66 42 100 40 Q134 42 132 74 Q130 64 121 60 Q112 56 100 56 Q88 56 79 60 Q70 64 68 74 Z" fill="#8a6d5c" stroke="#3d4e5e" stroke-width="2"/>
  <path d="M68 74 q-5 14 2 24 q4 2 7 -2" fill="#8a6d5c" stroke="#3d4e5e" stroke-width="2"/>
  <path d="M132 74 q5 14 -2 24 q-4 2 -7 -2" fill="#8a6d5c" stroke="#3d4e5e" stroke-width="2"/>
  <!-- ヘアピン -->
  <path d="M120 58 l8 -5 M122 63 l8 -5" stroke="#d98f40" stroke-width="2"/>

  <!-- 表情 -->
  <circle cx="88" cy="76" r="2.6" fill="#3d4e5e"/>
  <circle cx="112" cy="76" r="2.6" fill="#3d4e5e"/>
  <ellipse cx="82" cy="85" rx="4.2" ry="2.6" fill="#f3b8a0" opacity="0.65"/>
  <ellipse cx="118" cy="85" rx="4.2" ry="2.6" fill="#f3b8a0" opacity="0.65"/>
  <path d="M95 88 Q100 93 105 88" stroke="#3d4e5e" stroke-width="2"/>
</svg>
