<svg xmlns="http://www.w3.org/2000/svg" viewBox="0 0 340 232" fill="none" stroke-linecap="round" stroke-linejoin="round">
  <!-- 地面の波紋 -->
  <ellipse cx="170" cy="214" rx="150" ry="12" stroke="#c2cfd8" stroke-width="1.4" opacity="0.6"/>
  <ellipse cx="170" cy="214" rx="110" ry="8" fill="#e4ebef" opacity="0.5"/>

  <!-- ===== 左：女性薬剤師（手を振る） ===== -->
  <g>
    <ellipse cx="60" cy="206" rx="8" ry="4" fill="#5a6d7d"/>
    <ellipse cx="80" cy="206" rx="8" ry="4" fill="#5a6d7d"/>
    <path d="M60 96 L70 108 L80 96 Z" fill="#8fa83d"/>
    <path d="M48 102 Q70 93 92 102 L98 194 Q70 202 42 194 Z" fill="#ffffff" stroke="#3d4e5e" stroke-width="2.2"/>
    <path d="M70 107 V196" stroke="#dde4e8" stroke-width="1.8"/>
    <path d="M60 98 L70 109 L80 98" stroke="#3d4e5e" stroke-width="1.8"/>
    <!-- 左腕下ろす／右腕を振る -->
    <path d="M48 110 Q38 122 41 142" stroke="#3d4e5e" stroke-width="2.2"/>
    <circle cx="42" cy="146" r="5" fill="#f6d7bd" stroke="#3d4e5e" stroke-width="1.8"/>
    <path d="M92 106 Q106 98 110 82" stroke="#3d4e5e" stroke-width="2.2"/>
    <circle cx="112" cy="77" r="5.5" fill="#f6d7bd" stroke="#3d4e5e" stroke-width="1.8"/>
    <rect x="65" y="86" width="10" height="10" rx="3" fill="#f6d7bd"/>
    <circle cx="70" cy="30" r="9" fill="#5a6d7d"/>
    <rect x="65" y="25" width="10" height="3.5" rx="1.75" fill="#8fa83d"/>
    <circle cx="70" cy="62" r="26" fill="#f6d7bd" stroke="#3d4e5e" stroke-width="2.2"/>
    <path d="M44 62 Q43 36 70 34 Q97 36 96 62 Q94 54 87 51 Q80 48 70 48 Q60 48 53 51 Q46 54 44 62 Z" fill="#5a6d7d" stroke="#3d4e5e" stroke-width="1.8"/>
    <circle cx="60" cy="64" r="2.2" fill="#3d4e5e"/>
    <circle cx="80" cy="64" r="2.2" fill="#3d4e5e"/>
    <ellipse cx="55" cy="71" rx="3.4" ry="2.1" fill="#f3b8a0" opacity="0.65"/>
    <ellipse cx="85" cy="71" rx="3.4" ry="2.1" fill="#f3b8a0" opacity="0.65"/>
    <path d="M66 73 Q70 77 74 73" stroke="#3d4e5e" stroke-width="1.8"/>
  </g>

  <!-- ===== 中央：男性薬剤師 ===== -->
  <g>
    <ellipse cx="158" cy="208" rx="9" ry="4.5" fill="#5a6d7d"/>
    <ellipse cx="182" cy="208" rx="9" ry="4.5" fill="#5a6d7d"/>
    <path d="M158 92 L170 106 L182 92 Z" fill="#6eb4c7"/>
    <path d="M145 100 Q170 90 195 100 L202 196 Q170 205 138 196 Z" fill="#ffffff" stroke="#3d4e5e" stroke-width="2.2"/>
    <path d="M170 105 V198" stroke="#dde4e8" stroke-width="1.8"/>
    <path d="M158 94 L170 107 L182 94" stroke="#3d4e5e" stroke-width="1.8"/>
    <rect x="146" y="152" width="15" height="13" rx="2" stroke="#c2cfd8" stroke-width="1.4"/>
    <!-- 両腕下ろす -->
    <path d="M145 108 Q134 120 137 142" stroke="#3d4e5e" stroke-width="2.2"/>
    <circle cx="138" cy="146" r="5" fill="#f6d7bd" stroke="#3d4e5e" stroke-width="1.8"/>
    <path d="M195 108 Q206 120 203 142" stroke="#3d4e5e" stroke-width="2.2"/>
    <circle cx="202" cy="146" r="5" fill="#f6d7bd" stroke="#3d4e5e" stroke-width="1.8"/>
    <rect x="165" y="82" width="10" height="10" rx="3" fill="#f6d7bd"/>
    <circle cx="170" cy="56" r="28" fill="#f6d7bd" stroke="#3d4e5e" stroke-width="2.2"/>
    <path d="M142 56 Q141 28 170 27 Q199 28 198 56 Q196 44 188 42 Q180 40 170 40 Q160 40 152 42 Q144 44 142 56 Z" fill="#3d4e5e"/>
    <circle cx="159" cy="58" r="2.2" fill="#3d4e5e"/>
    <circle cx="181" cy="58" r="2.2" fill="#3d4e5e"/>
    <ellipse cx="153" cy="66" rx="3.4" ry="2.1" fill="#f3b8a0" opacity="0.6"/>
    <ellipse cx="187" cy="66" rx="3.4" ry="2.1" fill="#f3b8a0" opacity="0.6"/>
    <path d="M165 68 Q170 72 175 68" stroke="#3d4e5e" stroke-width="1.8"/>
  </g>

  <!-- ===== 右：事務スタッフ（手を振る） ===== -->
  <g>
    <ellipse cx="260" cy="206" rx="8" ry="4" fill="#5a6d7d"/>
    <ellipse cx="280" cy="206" rx="8" ry="4" fill="#5a6d7d"/>
    <path d="M248 102 Q270 93 292 102 L298 194 Q270 202 242 194 Z" fill="#ffffff" stroke="#3d4e5e" stroke-width="2.2"/>
    <path d="M253 114 Q270 109 287 114 L293 192 Q270 199 247 192 Z" fill="#e8b77d" stroke="#3d4e5e" stroke-width="2"/>
    <path d="M256 114 Q256 103 270 103 Q284 103 284 114" stroke="#d98f40" stroke-width="2.4"/>
    <path d="M270 148 q-8 10 0 16 q8 -6 0 -16 Z" fill="#ffffff" stroke="#d98f40" stroke-width="1.8"/>
    <!-- 右腕下ろす／左腕を振る -->
    <path d="M248 110 Q234 102 230 86" stroke="#3d4e5e" stroke-width="2.2"/>
    <circle cx="228" cy="81" r="5.5" fill="#f6d7bd" stroke="#3d4e5e" stroke-width="1.8"/>
    <path d="M292 110 Q302 122 299 142" stroke="#3d4e5e" stroke-width="2.2"/>
    <circle cx="298" cy="146" r="5" fill="#f6d7bd" stroke="#3d4e5e" stroke-width="1.8"/>
    <rect x="265" y="86" width="10" height="10" rx="3" fill="#f6d7bd"/>
    <circle cx="270" cy="62" r="26" fill="#f6d7bd" stroke="#3d4e5e" stroke-width="2.2"/>
    <path d="M244 62 Q243 36 270 34 Q297 36 296 62 Q294 54 287 51 Q280 48 270 48 Q260 48 253 51 Q246 54 244 62 Z" fill="#8a6d5c" stroke="#3d4e5e" stroke-width="1.8"/>
    <path d="M244 62 q-4 12 2 20 q3 2 6 -1" fill="#8a6d5c" stroke="#3d4e5e" stroke-width="1.8"/>
    <path d="M296 62 q4 12 -2 20 q-3 2 -6 -1" fill="#8a6d5c" stroke="#3d4e5e" stroke-width="1.8"/>
    <path d="M286 50 l7 -4" stroke="#d98f40" stroke-width="1.8"/>
    <circle cx="260" cy="64" r="2.2" fill="#3d4e5e"/>
    <circle cx="280" cy="64" r="2.2" fill="#3d4e5e"/>
    <ellipse cx="255" cy="71" rx="3.4" ry="2.1" fill="#f3b8a0" opacity="0.65"/>
    <ellipse cx="285" cy="71" rx="3.4" ry="2.1" fill="#f3b8a0" opacity="0.65"/>
    <path d="M266 73 Q270 77 274 73" stroke="#3d4e5e" stroke-width="1.8"/>
  </g>
</svg>
